<?xml version="1.0" encoding="UTF-8" standalone="no"?>
<!-- Created with Serif DrawPlus 12,0,4,27 (May 24, 08:37:51) (http://www.serif.com) -->
<svg version="1.1" xmlns="http://www.w3.org/2000/svg" xmlns:xlink="http://www.w3.org/1999/xlink" xmlns:i="http://ns.adobe.com/AdobeIllustrator/10.0/" width="271.231" height="271.232">
	<g id="dp_group001" transform="matrix(1,0,0,1,-1677.75,-502.944)">
		<path id="dp_path002" fill="#5e5e5e" fill-rule="evenodd" stroke="none" stroke-width="6.66667" d="M 1681.08,549.929 C 1681.08,525.82 1700.63,506.276 1724.74,506.276 L 1902,506.276 C 1926.11,506.276 1945.65,525.82 1945.65,549.929 L 1945.65,727.189 C 1945.65,751.299 1926.11,770.843 1902,770.843 L 1724.74,770.843 C 1700.63,770.843 1681.08,751.299 1681.08,727.189 Z "/>
		<g id="dp_group003">
			<path id="dp_path004" fill="#e9cd19" fill-rule="evenodd" stroke="none" stroke-width="1.33333" d="M 1881.32,699.888 C 1884.92,699.888 1887.84,702.861 1887.84,706.523 C 1887.84,710.183 1884.92,713.157 1881.32,713.157 C 1877.72,713.157 1874.8,710.183 1874.8,706.523 C 1874.8,702.861 1877.72,699.888 1881.32,699.888 Z "/>
			<path id="dp_path005" fill="white" fill-rule="evenodd" stroke="none" stroke-width="1.33333" d="M 1780.46,659.015 C 1777.2,658.383 1773.68,659.335 1771.17,661.856 L 1727.79,705.235 C 1723.75,709.269 1723.75,715.827 1727.79,719.869 L 1742.44,734.507 C 1746.47,738.551 1753.03,738.551 1757.07,734.507 L 1800.44,691.137 C 1804.49,687.093 1804.49,680.535 1800.44,676.5 L 1785.81,661.856 C 1784.28,660.333 1782.41,659.389 1780.46,659.015 Z "/>
			<path id="dp_path006" fill="white" fill-rule="evenodd" stroke="none" stroke-width="1.33333" d="M 1790.42,541.392 C 1778.51,537.293 1765.21,537.584 1752.9,542.157 L 1785.02,574.272 L 1786.92,592.031 L 1766.69,612.264 L 1748.92,610.359 L 1716.88,578.307 C 1709.65,597.947 1713.33,620.101 1728.27,635.035 C 1743.98,650.747 1767.72,654.003 1788.11,645.181 L 1861.09,730.707 L 1862.62,731.471 C 1865.11,733.539 1867.95,735.233 1871.03,736.451 C 1874.55,737.832 1878.38,738.597 1882.39,738.597 C 1899.49,738.597 1913.37,724.733 1913.37,707.631 C 1913.37,699.615 1910.31,692.307 1905.32,686.812 L 1905.3,686.795 L 1905.2,686.593 L 1904.78,686.233 C 1903.33,684.712 1901.72,683.339 1899.99,682.143 L 1819.8,613.715 C 1828.83,593.24 1825.64,569.307 1809.82,553.483 C 1804.2,547.864 1797.56,543.836 1790.42,541.392 Z "/>
			<path id="dp_path007" fill="white" fill-rule="evenodd" stroke="none" stroke-width="1.33333" d="M 1886.35,557.488 C 1878.71,564.616 1874.87,572.172 1872.97,578.3 L 1837.74,613.536 L 1848.72,624.511 L 1884.54,588.688 L 1884.55,588.688 C 1891.38,586.387 1899.85,581.671 1907.48,572.085 C 1901.69,566.285 1895.65,560.243 1889.86,554.468 C 1888.6,555.46 1887.43,556.465 1886.35,557.488 Z "/>
		</g>
	</g>
</svg>