<?xml version="1.0" encoding="UTF-8" standalone="no"?>
<!-- Created with Serif DrawPlus 12,0,4,27 (May 24, 08:37:51) (http://www.serif.com) -->
<svg version="1.1" xmlns="http://www.w3.org/2000/svg" xmlns:xlink="http://www.w3.org/1999/xlink" xmlns:i="http://ns.adobe.com/AdobeIllustrator/10.0/" width="271.231" height="271.232">
	<g id="dp_group001" transform="matrix(1,0,0,1,-1015.98,-168.712)">
		<path id="dp_path002" fill="#5ea8f8" fill-rule="evenodd" stroke="none" stroke-width="6.66667" d="M 1019.31,215.697 C 1019.31,191.588 1038.86,172.044 1062.97,172.044 L 1240.23,172.044 C 1264.33,172.044 1283.88,191.588 1283.88,215.697 L 1283.88,392.957 C 1283.88,417.067 1264.33,436.611 1240.23,436.611 L 1062.97,436.611 C 1038.86,436.611 1019.31,417.067 1019.31,392.957 Z "/>
		<g id="dp_group003">
			<path id="dp_path004" fill="none" fill-rule="evenodd" stroke="white" stroke-width="6.66667" d="M 1232.56,237.525 C 1237.02,237.525 1240.64,241.143 1240.64,245.604 C 1240.64,250.065 1237.02,253.683 1232.56,253.683 C 1228.1,253.683 1224.48,250.065 1224.48,245.604 C 1224.48,241.143 1228.1,237.525 1232.56,237.525 Z "/>
			<path id="dp_path005" fill="none" fill-rule="evenodd" stroke="white" stroke-width="6.66667" d="M 1194.23,297.657 C 1198.69,297.657 1202.31,301.275 1202.31,305.736 C 1202.31,310.197 1198.69,313.815 1194.23,313.815 C 1189.77,313.815 1186.15,310.197 1186.15,305.736 C 1186.15,301.275 1189.77,297.657 1194.23,297.657 Z "/>
			<path id="dp_path006" fill="none" fill-rule="evenodd" stroke="white" stroke-width="6.66667" d="M 1166.41,249.553 C 1170.87,249.553 1174.49,253.171 1174.49,257.632 C 1174.49,262.093 1170.87,265.711 1166.41,265.711 C 1161.95,265.711 1158.33,262.093 1158.33,257.632 C 1158.33,253.171 1161.95,249.553 1166.41,249.553 Z "/>
			<path id="dp_path007" fill="none" fill-rule="evenodd" stroke="white" stroke-width="6.66667" d="M 1137.1,308.184 C 1141.56,308.184 1145.18,311.801 1145.18,316.263 C 1145.18,320.724 1141.56,324.341 1137.1,324.341 C 1132.64,324.341 1129.02,320.724 1129.02,316.263 C 1129.02,311.801 1132.64,308.184 1137.1,308.184 Z "/>
			<path id="dp_path008" fill="none" fill-rule="evenodd" stroke="white" stroke-width="6.66667" d="M 1108.54,258.573 C 1113,258.573 1116.61,262.191 1116.61,266.652 C 1116.61,271.113 1113,274.731 1108.54,274.731 C 1104.07,274.731 1100.46,271.113 1100.46,266.652 C 1100.46,262.191 1104.07,258.573 1108.54,258.573 Z "/>
			<path id="dp_path009" fill="none" fill-rule="evenodd" stroke="white" stroke-width="6.66667" d="M 1059.68,290.893 C 1064.14,290.893 1067.75,294.511 1067.75,298.972 C 1067.75,303.433 1064.14,307.051 1059.68,307.051 C 1055.21,307.051 1051.6,303.433 1051.6,298.972 C 1051.6,294.511 1055.21,290.893 1059.68,290.893 Z "/>
			<path id="dp_path010" fill="none" fill-rule="evenodd" stroke="white" stroke-width="13.3333" d="M 1193.47,277.752 C 1208.72,277.752 1221.08,290.111 1221.08,305.356 C 1221.08,320.601 1208.72,332.96 1193.47,332.96 C 1178.21,332.96 1165.85,320.601 1165.85,305.356 C 1165.85,290.111 1178.21,277.752 1193.47,277.752 Z "/>
			<path id="dp_path011" fill="none" fill-rule="evenodd" stroke="white" stroke-width="6.66667" d="M 1065.69,294.461 L 1101.02,271.161"/>
			<path id="dp_path012" fill="none" fill-rule="evenodd" stroke="white" stroke-width="6.66667" d="M 1113.05,273.416 L 1132.63,308.725"/>
			<path id="dp_path013" fill="none" fill-rule="evenodd" stroke="white" stroke-width="6.66667" d="M 1140.61,309.741 L 1162.65,263.643"/>
			<path id="dp_path014" fill="none" fill-rule="evenodd" stroke="white" stroke-width="6.66667" d="M 1170.17,264.396 L 1189.64,298.715"/>
			<path id="dp_path015" fill="none" fill-rule="evenodd" stroke="white" stroke-width="6.66667" d="M 1198.46,299.224 L 1228.05,253.119"/>
			<path id="dp_path016" fill="none" fill-rule="evenodd" stroke="white" stroke-width="13.3333" d="M 1211.51,326.784 L 1251.6,371.131"/>
		</g>
	</g>
</svg>