<?xml version="1.0" encoding="UTF-8" standalone="no"?>
<!-- Created with Serif DrawPlus 12,0,4,27 (May 24, 08:37:51) (http://www.serif.com) -->
<svg version="1.1" xmlns="http://www.w3.org/2000/svg" xmlns:xlink="http://www.w3.org/1999/xlink" xmlns:i="http://ns.adobe.com/AdobeIllustrator/10.0/" width="272.373" height="272.375">
	<g id="dp_group001" transform="matrix(1,0,0,1,-1674.38,-170.373)">
		<path id="dp_path002" fill="#4dd25b" fill-rule="evenodd" stroke="none" stroke-width="6.66667" d="M 1678.86,217.077 C 1679.02,192.969 1698.69,173.552 1722.8,173.707 L 1900.05,174.852 C 1924.16,175.008 1943.58,194.677 1943.42,218.787 L 1942.28,396.043 C 1942.12,420.152 1922.45,439.569 1898.34,439.413 L 1721.09,438.268 C 1696.98,438.113 1677.56,418.443 1677.72,394.335 Z "/>
		<g id="dp_group003">
			<g id="dp_group004">
				<path id="dp_path005" fill="white" fill-rule="evenodd" stroke="none" stroke-width="1.33333" d="M 1753.99,249.252 L 1867.87,249.988 L 1867.81,256.283 C 1868.83,255.409 1877.04,249.339 1877.07,249.312 L 1877.12,240.861 L 1744.87,240.008 L 1744.02,372.261 L 1876.27,373.115 L 1876.87,274.463 C 1876.47,274.856 1868.87,283.385 1867.63,284.665 L 1867.13,363.871 L 1753.25,363.135 Z "/>
				<path id="dp_path006" fill="white" fill-rule="evenodd" stroke="none" stroke-width="1.33333" d="M 1755.77,291.119 C 1768.17,300.252 1798.8,343.073 1802.43,355.311 C 1807.54,343.456 1885.97,253.668 1929.88,221.612 C 1879.01,241.873 1812.62,311.319 1800.84,318.135 C 1784.2,308.257 1772.74,297.336 1755.77,291.119 Z "/>
			</g>
			<path id="dp_path007" fill="white" fill-rule="evenodd" stroke="none" stroke-width="1.33333" d="M 1755.77,291.119 C 1768.17,300.252 1798.8,343.073 1802.43,355.311 C 1807.54,343.456 1885.97,253.668 1929.88,221.612 C 1879.01,241.873 1812.62,311.319 1800.84,318.135 C 1784.2,308.257 1772.74,297.336 1755.77,291.119 Z "/>
		</g>
	</g>
</svg>