<?xml version="1.0" encoding="UTF-8" standalone="no"?>
<!-- Created with Serif DrawPlus 12,0,4,27 (May 24, 08:37:51) (http://www.serif.com) -->
<svg version="1.1" xmlns="http://www.w3.org/2000/svg" xmlns:xlink="http://www.w3.org/1999/xlink" xmlns:i="http://ns.adobe.com/AdobeIllustrator/10.0/" width="271.231" height="271.232">
	<g id="dp_group001" transform="matrix(1,0,0,1,-25.9813,-170.404)">
		<path id="dp_path002" fill="#f83e32" fill-rule="evenodd" stroke="none" stroke-width="6.66667" d="M 29.3133,217.389 C 29.3133,193.28 48.8573,173.736 72.9667,173.736 L 250.225,173.736 C 274.335,173.736 293.879,193.28 293.879,217.389 L 293.879,394.649 C 293.879,418.759 274.335,438.303 250.225,438.303 L 72.9667,438.303 C 48.8573,438.303 29.3133,418.759 29.3133,394.649 Z "/>
		<path id="dp_path003" fill="white" fill-rule="evenodd" stroke="none" stroke-width="1.33333" d="M 133.636,357.209 C 138.089,354.732 143.82,355.581 147.345,359.551 C 151.42,364.14 151.003,371.167 146.413,375.241 L 140.44,380.545 C 135.849,384.62 128.823,384.203 124.748,379.613 C 121.352,375.791 121.075,370.273 123.732,366.183 C 119.277,368.659 113.548,367.808 110.027,363.841 C 106.999,360.432 106.452,355.679 108.251,351.788 C 104.064,353.373 99.1547,352.316 96.0067,348.769 C 93.0493,345.44 92.4573,340.827 94.1093,336.991 C 90.116,338.155 85.6307,337.013 82.688,333.699 C 78.6133,329.107 79.032,322.08 83.6213,318.005 L 89.5933,312.704 C 94.184,308.628 101.211,309.044 105.285,313.636 C 108.241,316.965 108.833,321.579 107.183,325.415 C 111.175,324.253 115.66,325.392 118.605,328.707 C 121.631,332.116 122.177,336.872 120.379,340.76 C 124.565,339.177 129.475,340.232 132.624,343.779 C 136.02,347.604 136.296,353.12 133.636,357.209 Z M 61.6147,239.116 C 62.4907,261.443 63.2613,311.94 62.944,315.716 C 67.7827,315.68 67.7133,314.865 73.012,316.741 C 76.8347,312.621 85.9133,304.116 96.248,302.523 C 99.6987,301.991 103.176,302.579 106.191,303.871 C 110.619,305.768 115.913,313.968 115.964,317.351 C 116.028,321.52 127.583,317.812 128.565,331.112 C 137.468,331.745 142.927,338.741 143.637,345.832 C 143.957,349.039 156.743,345.407 157.657,361.78 C 157.876,365.733 162.256,371.288 166.201,375.332 C 168.955,378.153 171.355,377.323 174.305,375.975 C 178.124,373.337 179.851,370.743 178.649,367.061 C 175.848,358.471 164.477,349.549 165.284,348.673 C 165.483,348.489 166.307,347.903 167.607,347.003 L 182.929,363.897 C 185.984,367.264 191.189,367.519 194.557,364.465 L 195.909,363.236 C 199.28,360.181 199.532,354.976 196.477,351.608 L 182.705,336.425 C 183.481,335.869 184.267,335.301 185.059,334.721 L 199.945,351.136 C 202.999,354.504 208.205,354.759 211.572,351.704 L 212.925,350.475 C 216.295,347.421 216.547,342.215 213.493,338.848 L 199.616,323.551 C 200.347,322.948 201.064,322.347 201.761,321.751 L 215.683,337.1 C 218.736,340.468 223.943,340.723 227.309,337.668 L 228.663,336.439 C 232.032,333.385 232.284,328.179 229.231,324.812 L 213.143,307.075 C 212.515,306.385 207.624,300.991 203.789,296.48 C 192.596,283.328 179.92,270.775 168.347,281.341 C 160.456,288.545 130.812,298.004 124.36,279.64 C 117.483,260.064 145.591,242.181 160.729,237.331 C 132.071,218.976 116.607,242.104 92.0627,249.739 C 87.3853,251.195 68.4347,242.112 61.6147,239.116 Z M 259.875,248.853 C 243.779,248.916 237.476,259.709 224.473,247.535 C 212.505,236.331 206.189,224.897 189.879,229.823 C 180.967,232.515 137.58,254.012 132.596,264.517 C 127.893,274.432 134.884,281.773 141.008,282.393 C 150.64,284.367 179.551,265.833 183.419,265.219 C 193.029,263.691 214.133,285.396 219.26,292.713 C 224.4,300.053 235.972,309.252 244.673,314.792 C 245.096,315.061 255.999,316.583 261.579,316.04 C 261.691,307.276 261.573,254.797 260.761,248.392 C 260.712,247.997 260.309,248.779 259.875,248.853 Z "/>
	</g>
</svg>