<?xml version="1.0" encoding="UTF-8" standalone="no"?>
<!-- Created with Serif DrawPlus 12,0,4,27 (May 24, 08:37:51) (http://www.serif.com) -->
<svg version="1.1" xmlns="http://www.w3.org/2000/svg" xmlns:xlink="http://www.w3.org/1999/xlink" xmlns:i="http://ns.adobe.com/AdobeIllustrator/10.0/" width="271.231" height="271.232">
	<g id="dp_group001" transform="matrix(1,0,0,1,-1363.58,-170.404)">
		<path id="dp_path002" fill="#f38302" fill-rule="evenodd" stroke="none" stroke-width="6.66667" d="M 1366.91,217.389 C 1366.91,193.28 1386.45,173.736 1410.56,173.736 L 1587.82,173.736 C 1611.93,173.736 1631.47,193.28 1631.47,217.389 L 1631.47,394.649 C 1631.47,418.759 1611.93,438.303 1587.82,438.303 L 1410.56,438.303 C 1386.45,438.303 1366.91,418.759 1366.91,394.649 Z "/>
		<g id="dp_group003">
			<path id="dp_path004" fill="white" fill-rule="evenodd" stroke="none" stroke-width="6.66667" d="M 1443.33,206.023 C 1436.55,206.023 1431.06,211.513 1431.06,218.285 L 1431.06,393.759 C 1431.06,400.531 1436.55,406.021 1443.33,406.021 L 1555.05,406.021 C 1561.83,406.021 1567.32,400.531 1567.32,393.759 L 1567.32,218.285 C 1567.32,211.513 1561.83,206.023 1555.05,206.023 Z "/>
			<path id="dp_path005" fill="#f38302" fill-rule="evenodd" stroke="none" stroke-width="6.66667" d="M 1451.83,216.565 C 1446.08,216.565 1441.43,221.22 1441.43,226.961 L 1441.43,375.732 C 1441.43,381.473 1446.08,386.128 1451.83,386.128 L 1546.55,386.128 C 1552.29,386.128 1556.95,381.473 1556.95,375.732 L 1556.95,226.961 C 1556.95,221.22 1552.29,216.565 1546.55,216.565 Z "/>
			<path id="dp_path006" fill="#f38302" fill-rule="evenodd" stroke="none" stroke-width="6.66667" d="M 1485.88,392.341 C 1484.24,392.341 1482.91,393.672 1482.91,395.312 C 1482.91,396.952 1484.24,398.283 1485.88,398.283 L 1512.5,398.283 C 1514.14,398.283 1515.47,396.952 1515.47,395.312 C 1515.47,393.672 1514.14,392.341 1512.5,392.341 Z "/>
			<g id="dp_group007">
				<path id="dp_path008" fill="none" fill-rule="evenodd" stroke="white" stroke-width="5" d="M 1490.8,324.979 C 1490.96,322.139 1490.01,318.656 1488.43,316.512 C 1483.81,310.223 1478.95,301.077 1478.64,293.417 C 1478.56,291.312 1478.82,289.319 1479.52,287.528 C 1482.97,278.751 1490.38,273.695 1498.61,273.581 C 1506.81,273.68 1514.97,278.751 1518.43,287.528 C 1519.13,289.319 1519.39,291.312 1519.31,293.417 C 1519,301.077 1514.14,310.223 1509.52,316.512 C 1507.94,318.656 1506.99,322.139 1507.15,324.979"/>
				<path id="dp_path009" fill="white" fill-rule="evenodd" stroke="none" stroke-width="1.33333" d="M 1459.19,292.737 C 1459.19,291.264 1460.38,290.069 1461.86,290.069 L 1467.64,290.069 C 1469.11,290.069 1470.31,291.264 1470.31,292.737 L 1470.31,292.96 C 1470.31,294.433 1469.11,295.628 1467.64,295.628 L 1461.86,295.628 C 1460.38,295.628 1459.19,294.433 1459.19,292.96 Z "/>
				<path id="dp_path010" fill="white" fill-rule="evenodd" stroke="none" stroke-width="1.33333" d="M 1528.07,292.737 C 1528.07,291.264 1529.26,290.069 1530.74,290.069 L 1536.52,290.069 C 1537.99,290.069 1539.19,291.264 1539.19,292.737 L 1539.19,292.96 C 1539.19,294.433 1537.99,295.628 1536.52,295.628 L 1530.74,295.628 C 1529.26,295.628 1528.07,294.433 1528.07,292.96 Z "/>
				<path id="dp_path011" fill="white" fill-rule="evenodd" stroke="none" stroke-width="1.33333" d="M 1524.27,278.563 C 1523.53,277.287 1523.97,275.655 1525.24,274.919 L 1530.25,272.027 C 1531.53,271.291 1533.16,271.728 1533.89,273.004 L 1534.01,273.196 C 1534.74,274.472 1534.31,276.104 1533.03,276.841 L 1528.02,279.732 C 1526.75,280.469 1525.11,280.032 1524.38,278.756 Z "/>
				<path id="dp_path012" fill="white" fill-rule="evenodd" stroke="none" stroke-width="1.33333" d="M 1513.28,269.159 C 1512.01,268.423 1511.57,266.791 1512.31,265.515 L 1515.2,260.507 C 1515.93,259.231 1517.57,258.793 1518.84,259.529 L 1519.03,259.641 C 1520.31,260.377 1520.75,262.009 1520.01,263.285 L 1517.12,268.293 C 1516.38,269.569 1514.75,270.007 1513.47,269.271 Z "/>
				<path id="dp_path013" fill="white" fill-rule="evenodd" stroke="none" stroke-width="1.33333" d="M 1499.08,266.465 C 1497.6,266.465 1496.41,265.271 1496.41,263.797 L 1496.41,258.015 C 1496.41,256.541 1497.6,255.347 1499.08,255.347 L 1499.3,255.347 C 1500.77,255.347 1501.97,256.541 1501.97,258.015 L 1501.97,263.797 C 1501.97,265.271 1500.77,266.465 1499.3,266.465 Z "/>
				<path id="dp_path014" fill="white" fill-rule="evenodd" stroke="none" stroke-width="1.33333" d="M 1484.9,269.271 C 1483.63,270.007 1481.99,269.569 1481.26,268.293 L 1478.37,263.285 C 1477.63,262.009 1478.07,260.377 1479.34,259.641 L 1479.53,259.529 C 1480.81,258.793 1482.44,259.231 1483.18,260.507 L 1486.07,265.515 C 1486.81,266.791 1486.37,268.423 1485.09,269.159 Z "/>
				<path id="dp_path015" fill="white" fill-rule="evenodd" stroke="none" stroke-width="1.33333" d="M 1474.5,278.756 C 1473.76,280.032 1472.13,280.469 1470.85,279.732 L 1465.85,276.841 C 1464.57,276.104 1464.13,274.472 1464.87,273.196 L 1464.98,273.004 C 1465.72,271.728 1467.35,271.291 1468.63,272.027 L 1473.63,274.919 C 1474.91,275.655 1475.35,277.287 1474.61,278.563 Z "/>
				<path id="dp_path016" fill="white" fill-rule="evenodd" stroke="none" stroke-width="1.33333" d="M 1534.89,312.696 C 1534.16,313.972 1532.53,314.409 1531.25,313.673 L 1526.24,310.781 C 1524.97,310.045 1524.53,308.413 1525.26,307.137 L 1525.38,306.944 C 1526.11,305.668 1527.74,305.231 1529.02,305.968 L 1534.03,308.859 C 1535.3,309.596 1535.74,311.228 1535.01,312.504 Z "/>
				<path id="dp_path017" fill="white" fill-rule="evenodd" stroke="none" stroke-width="1.33333" d="M 1463.87,312.504 C 1463.13,311.228 1463.57,309.596 1464.85,308.859 L 1469.86,305.968 C 1471.13,305.231 1472.76,305.668 1473.5,306.944 L 1473.61,307.137 C 1474.35,308.413 1473.91,310.045 1472.63,310.781 L 1467.63,313.673 C 1466.35,314.409 1464.72,313.972 1463.98,312.696 Z "/>
				<path id="dp_path018" fill="white" fill-rule="evenodd" stroke="none" stroke-width="1.33333" d="M 1489.26,330.477 C 1489.26,329.387 1490.15,328.501 1491.24,328.501 L 1507.37,328.501 C 1508.47,328.501 1509.35,329.387 1509.35,330.477 L 1509.35,330.641 C 1509.35,331.732 1508.47,332.617 1507.37,332.617 L 1491.24,332.617 C 1490.15,332.617 1489.26,331.732 1489.26,330.641 Z "/>
				<path id="dp_path019" fill="white" fill-rule="evenodd" stroke="none" stroke-width="1.33333" d="M 1489.05,337.18 C 1489.05,336.089 1489.94,335.204 1491.03,335.204 L 1507.17,335.204 C 1508.26,335.204 1509.14,336.089 1509.14,337.18 L 1509.14,337.344 C 1509.14,338.435 1508.26,339.32 1507.17,339.32 L 1491.03,339.32 C 1489.94,339.32 1489.05,338.435 1489.05,337.344 Z "/>
				<path id="dp_path020" fill="white" fill-rule="evenodd" stroke="none" stroke-width="1.33333" d="M 1491.87,341.408 C 1490.09,345.367 1499.38,347.347 1499.38,347.347 C 1499.38,347.347 1508.66,345.367 1506.88,341.408 C 1501.94,341.408 1496.79,341.408 1491.87,341.408 Z "/>
			</g>
		</g>
	</g>
</svg>