<?xml version="1.0" encoding="UTF-8" standalone="no"?>
<!-- Created with Serif DrawPlus 12,0,4,27 (May 24, 08:37:51) (http://www.serif.com) -->
<svg version="1.1" xmlns="http://www.w3.org/2000/svg" xmlns:xlink="http://www.w3.org/1999/xlink" xmlns:i="http://ns.adobe.com/AdobeIllustrator/10.0/" width="271.231" height="271.232">
	<g id="dp_group001" transform="matrix(1,0,0,1,-357.516,-170.404)">
		<path id="dp_path002" fill="#4dd25b" fill-rule="evenodd" stroke="none" stroke-width="6.66667" d="M 360.848,217.389 C 360.848,193.28 380.392,173.736 404.501,173.736 L 581.76,173.736 C 605.869,173.736 625.413,193.28 625.413,217.389 L 625.413,394.649 C 625.413,418.759 605.869,438.303 581.76,438.303 L 404.501,438.303 C 380.392,438.303 360.848,418.759 360.848,394.649 Z "/>
		<path id="dp_path003" fill="white" fill-rule="evenodd" stroke="#4dd25b" stroke-width="6.66667" d="M 437.991,207.888 C 449.345,207.888 458.551,217.093 458.551,228.449 C 458.551,239.805 449.345,249.011 437.991,249.011 C 426.636,249.011 417.431,239.805 417.431,228.449 C 417.431,217.093 426.636,207.888 437.991,207.888 Z "/>
		<path id="dp_path004" fill="white" fill-rule="evenodd" stroke="#4dd25b" stroke-width="6.66667" d="M 572.571,297.607 C 583.925,297.607 593.131,306.812 593.131,318.168 C 593.131,329.524 583.925,338.729 572.571,338.729 C 561.216,338.729 552.011,329.524 552.011,318.168 C 552.011,306.812 561.216,297.607 572.571,297.607 Z "/>
		<path id="dp_path005" fill="white" fill-rule="evenodd" stroke="#4dd25b" stroke-width="6.66667" d="M 507.151,363.029 C 518.505,363.029 527.711,372.235 527.711,383.591 C 527.711,394.947 518.505,404.152 507.151,404.152 C 495.796,404.152 486.591,394.947 486.591,383.591 C 486.591,372.235 495.796,363.029 507.151,363.029 Z "/>
		<path id="dp_path006" fill="white" fill-rule="evenodd" stroke="#4dd25b" stroke-width="6.66667" d="M 413.692,299.477 C 425.047,299.477 434.252,308.683 434.252,320.039 C 434.252,331.395 425.047,340.6 413.692,340.6 C 402.337,340.6 393.132,331.395 393.132,320.039 C 393.132,308.683 402.337,299.477 413.692,299.477 Z "/>
		<path id="dp_path007" fill="white" fill-rule="evenodd" stroke="#4dd25b" stroke-width="6.66667" d="M 475.375,286.392 C 486.729,286.392 495.935,295.597 495.935,306.953 C 495.935,318.309 486.729,327.515 475.375,327.515 C 464.02,327.515 454.815,318.309 454.815,306.953 C 454.815,295.597 464.02,286.392 475.375,286.392 Z "/>
		<path id="dp_path008" fill="white" fill-rule="evenodd" stroke="#4dd25b" stroke-width="6.66667" d="M 555.749,209.756 C 567.104,209.756 576.309,218.961 576.309,230.317 C 576.309,241.673 567.104,250.879 555.749,250.879 C 544.395,250.879 535.189,241.673 535.189,230.317 C 535.189,218.961 544.395,209.756 555.749,209.756 Z "/>
		<g id="dp_group009">
			<path id="dp_path010" fill="white" fill-rule="evenodd" stroke="white" stroke-width="10" d="M 438.536,229.097 L 554.5,229.836"/>
			<path id="dp_path011" fill="white" fill-rule="evenodd" stroke="white" stroke-width="10" d="M 554.5,229.836 L 572.228,317.732"/>
			<path id="dp_path012" fill="white" fill-rule="evenodd" stroke="white" stroke-width="10" d="M 572.228,317.732 L 507.228,384.208"/>
			<path id="dp_path013" fill="white" fill-rule="evenodd" stroke="white" stroke-width="10" d="M 507.228,384.208 L 475.468,308.131"/>
			<path id="dp_path014" fill="white" fill-rule="evenodd" stroke="white" stroke-width="10" d="M 475.468,307.392 L 414.9,320.687"/>
			<path id="dp_path015" fill="white" fill-rule="evenodd" stroke="white" stroke-width="10" d="M 414.9,319.948 L 506.489,384.947"/>
			<path id="dp_path016" fill="white" fill-rule="evenodd" stroke="white" stroke-width="10" d="M 473.989,308.131 L 571.488,317.732"/>
			<path id="dp_path017" fill="white" fill-rule="evenodd" stroke="white" stroke-width="10" d="M 473.989,306.652 L 437.797,228.359"/>
			<path id="dp_path018" fill="white" fill-rule="evenodd" stroke="white" stroke-width="10" d="M 474.728,305.913 L 555.977,232.051"/>
			<path id="dp_path019" fill="white" fill-rule="evenodd" stroke="white" stroke-width="10" d="M 438.536,228.359 L 413.423,319.209"/>
		</g>
	</g>
</svg>