<?xml version="1.0" encoding="UTF-8" standalone="no"?>
<!-- Created with Serif DrawPlus 12,0,4,27 (May 24, 08:37:51) (http://www.serif.com) -->
<svg version="1.1" xmlns="http://www.w3.org/2000/svg" xmlns:xlink="http://www.w3.org/1999/xlink" xmlns:i="http://ns.adobe.com/AdobeIllustrator/10.0/" width="271.231" height="271.232">
	<g id="dp_group001" transform="matrix(1,0,0,1,-695.016,-497.02)">
		<path id="dp_path002" fill="#5ea8f8" fill-rule="evenodd" stroke="none" stroke-width="6.66667" d="M 698.348,544.005 C 698.348,519.896 717.892,500.352 742.001,500.352 L 919.26,500.352 C 943.369,500.352 962.913,519.896 962.913,544.005 L 962.913,721.265 C 962.913,745.375 943.369,764.919 919.26,764.919 L 742.001,764.919 C 717.892,764.919 698.348,745.375 698.348,721.265 Z "/>
		<g id="dp_group003">
			<path id="dp_path004" fill="white" fill-rule="evenodd" stroke="white" stroke-width="1.33333" d="M 854.079,715.505 C 845.04,715.505 837.712,708.177 837.712,699.139 C 837.712,690.101 845.04,682.773 854.079,682.773 C 863.116,682.773 870.444,690.101 870.444,699.139 C 870.444,708.177 863.116,715.505 854.079,715.505 Z M 829.699,675.644 C 828.161,670.235 823.185,666.273 817.285,666.273 C 810.161,666.273 804.384,672.051 804.384,679.175 C 804.384,686.3 810.161,692.076 817.285,692.076 C 824.411,692.076 830.188,686.3 830.188,679.175 C 830.188,677.951 830.017,676.765 829.699,675.644 Z M 880.725,660.529 L 909.432,697.815 L 909.432,715.635 L 898.543,730.812 L 772.167,728.172 C 772.581,722.849 773.139,712.9 775.525,706.936 C 779.669,696.576 800.617,664.812 803.843,660.199 C 811.396,660.743 878.347,659.647 881.055,660.529 Z "/>
			<path id="dp_path005" fill="white" fill-rule="evenodd" stroke="none" stroke-width="1.33333" d="M 789.903,562.56 L 867.139,562.56 L 867.139,576.111 L 789.903,576.111 Z "/>
			<path id="dp_path006" fill="white" fill-rule="evenodd" stroke="none" stroke-width="1.33333" d="M 799.737,629.635 L 799.737,568.152 L 812.005,568.152 L 812.005,629.635 Z "/>
			<path id="dp_path007" fill="white" fill-rule="evenodd" stroke="none" stroke-width="1.33333" d="M 846.908,625.273 L 846.908,567.492 L 859.689,567.492 L 859.689,625.273 Z "/>
			<path id="dp_path008" fill="white" fill-rule="evenodd" stroke="none" stroke-width="1.33333" d="M 840.041,532.636 C 845.344,532.636 849.643,536.935 849.643,542.237 C 849.643,547.54 845.344,551.839 840.041,551.839 C 834.739,551.839 830.44,547.54 830.44,542.237 C 830.44,536.935 834.739,532.636 840.041,532.636 Z "/>
			<path id="dp_path009" fill="white" fill-rule="evenodd" stroke="none" stroke-width="1.33333" d="M 827.845,596.324 C 833.148,596.324 837.447,600.623 837.447,605.925 C 837.447,611.228 833.148,615.527 827.845,615.527 C 822.543,615.527 818.244,611.228 818.244,605.925 C 818.244,600.623 822.543,596.324 827.845,596.324 Z "/>
			<path id="dp_path010" fill="none" fill-rule="evenodd" stroke="white" stroke-width="12.3333" d="M 805.823,614.335 C 804.696,619.895 807.777,629.08 803.724,634.229 C 782.369,661.361 752.275,689.543 749.252,709.841 C 748.055,717.871 754.373,731.267 769.577,731.793 C 809.04,733.159 895.731,732.671 895.597,731.793 C 903.944,730.476 913.955,721.76 911.857,704.963 C 908.149,690.404 882.448,658.265 861.449,638.295 C 851.244,628.587 853.052,621.911 853.008,615.655"/>
		</g>
	</g>
</svg>