<?xml version="1.0" encoding="UTF-8" standalone="no"?>
<!-- Created with Serif DrawPlus 12,0,4,27 (May 24, 08:37:51) (http://www.serif.com) -->
<svg version="1.1" xmlns="http://www.w3.org/2000/svg" xmlns:xlink="http://www.w3.org/1999/xlink" xmlns:i="http://ns.adobe.com/AdobeIllustrator/10.0/" width="271.231" height="271.232">
	<g id="dp_group001" transform="matrix(1,0,0,1,-32.232,-503.271)">
		<path id="dp_path002" fill="#4dd25b" fill-rule="evenodd" stroke="none" stroke-width="6.66667" d="M 35.564,550.256 C 35.564,526.147 55.108,506.603 79.2173,506.603 L 256.476,506.603 C 280.585,506.603 300.129,526.147 300.129,550.256 L 300.129,727.516 C 300.129,751.625 280.585,771.169 256.476,771.169 L 79.2173,771.169 C 55.108,771.169 35.564,751.625 35.564,727.516 Z "/>
		<g id="dp_group003">
			<path id="dp_path004" fill="white" fill-rule="evenodd" stroke="none" stroke-width="1.33333" d="M 167.927,719.859 C 176.591,719.629 175.505,713.883 182.439,708.595 C 198.86,696.071 231.48,711.359 252.295,703.621 L 253.208,570.408 C 255.901,567.701 267.759,570.021 267.793,570.891 C 268.392,585.705 266.412,668.295 267.415,716.399 C 267.633,726.9 199.267,713.68 192.501,719.095 C 191.784,719.668 180.029,735.113 167.332,735.577 C 154.625,735.113 142.876,720.268 142.16,719.695 C 135.396,714.279 67.628,728.397 67.8467,717.897 C 68.8493,669.793 67.2813,585.705 67.8813,570.891 C 67.9147,570.021 79.772,567.701 82.4667,570.408 L 83.38,703.621 C 104.195,711.359 136.812,696.071 153.236,708.595 C 160.169,713.883 159.263,719.629 167.927,719.859 Z "/>
			<path id="dp_path005" fill="white" fill-rule="evenodd" stroke="none" stroke-width="1.33333" d="M 97.404,543.196 C 118.724,539.912 162.849,553.757 162.496,564.125 C 161.161,603.46 162.619,661.209 161.964,699.659 C 149.845,685.452 111.056,690.103 96.9733,690.988 C 97.8813,674.352 97.6,570.164 97.404,543.196 Z "/>
			<path id="dp_path006" fill="white" fill-rule="evenodd" stroke="none" stroke-width="1.33333" d="M 239.965,542.664 C 218.645,539.379 174.52,553.225 174.873,563.593 C 176.208,602.927 174.752,660.677 175.407,699.127 C 187.525,684.919 226.313,689.571 240.396,690.456 C 239.489,673.82 239.771,569.631 239.965,542.664 Z "/>
		</g>
	</g>
</svg>