<?xml version="1.0" encoding="UTF-8" standalone="no"?>
<!-- Created with Serif DrawPlus 12,0,4,27 (May 24, 08:37:51) (http://www.serif.com) -->
<svg version="1.1" xmlns="http://www.w3.org/2000/svg" xmlns:xlink="http://www.w3.org/1999/xlink" xmlns:i="http://ns.adobe.com/AdobeIllustrator/10.0/" width="271.231" height="271.232">
	<g id="dp_group001" transform="matrix(1,0,0,1,-1013.05,-490.944)">
		<path id="dp_path002" fill="#f83e32" fill-rule="evenodd" stroke="none" stroke-width="6.66667" d="M 1016.38,537.929 C 1016.38,513.82 1035.93,494.276 1060.04,494.276 L 1237.29,494.276 C 1261.4,494.276 1280.95,513.82 1280.95,537.929 L 1280.95,715.189 C 1280.95,739.299 1261.4,758.843 1237.29,758.843 L 1060.04,758.843 C 1035.93,758.843 1016.38,739.299 1016.38,715.189 Z "/>
		<path id="dp_path003" fill="white" fill-rule="evenodd" stroke="none" stroke-width="0.266667" d="M 1056.4,592.273 C 1056.49,593.601 1055.87,665.677 1056.2,668.497 C 1077.67,675.268 1146.69,700.296 1151.55,701.899 C 1165.31,697.284 1245.72,668.892 1245.72,667.596 C 1245.71,659.211 1246.03,614.167 1245.72,593.117 C 1245.7,591.371 1161.35,567.011 1151.44,563.281 C 1142.39,567.232 1083.46,584.555 1056.89,592.273 Z "/>
		<path id="dp_path004" fill="none" fill-rule="evenodd" stroke="#f83e32" stroke-width="6.66667" d="M 1153,563.288 L 1153,592.293"/>
		<path id="dp_path005" fill="white" fill-rule="evenodd" stroke="#f83e32" stroke-width="6.66667" d="M 1123.89,594.597 L 1217.15,559.951 L 1245.73,591.572 L 1152.47,626.219 Z "/>
		<path id="dp_path006" fill="white" fill-rule="evenodd" stroke="#f83e32" stroke-width="6.66667" d="M 1090.03,558.685 L 1186.85,528.359 L 1149.51,559.72 L 1052.69,590.048 Z "/>
		<path id="dp_path007" fill="none" fill-rule="evenodd" stroke="#f83e32" stroke-width="6.66667" d="M 1152.13,626.02 L 1248.66,589.972"/>
		<path id="dp_path008" fill="none" fill-rule="evenodd" stroke="#f83e32" stroke-width="6.66667" d="M 1151.36,707.66 L 1151.36,625.027"/>
		<path id="dp_path009" fill="none" fill-rule="evenodd" stroke="#f83e32" stroke-width="6.66667" d="M 1048.67,591.215 L 1150.97,625.772"/>
	</g>
</svg>