<?xml version="1.0" encoding="UTF-8" standalone="no"?>
<!-- Created with Serif DrawPlus 12,0,4,27 (May 24, 08:37:51) (http://www.serif.com) -->
<svg version="1.1" xmlns="http://www.w3.org/2000/svg" xmlns:xlink="http://www.w3.org/1999/xlink" xmlns:i="http://ns.adobe.com/AdobeIllustrator/10.0/" width="271.231" height="271.232">
	<g id="dp_group001" transform="matrix(1,0,0,1,-376.267,-496.212)">
		<path id="dp_path002" fill="#f38302" fill-rule="evenodd" stroke="none" stroke-width="6.66667" d="M 379.599,543.197 C 379.599,519.088 399.143,499.544 423.252,499.544 L 600.511,499.544 C 624.62,499.544 644.164,519.088 644.164,543.197 L 644.164,720.457 C 644.164,744.567 624.62,764.111 600.511,764.111 L 423.252,764.111 C 399.143,764.111 379.599,744.567 379.599,720.457 Z "/>
		<path id="dp_path003" fill="white" fill-rule="evenodd" stroke="none" stroke-width="1.33333" d="M 439.712,662.944 L 487.573,684.108 L 487.573,692.289 L 439.712,671.125 Z M 478.789,639.469 L 470.769,645.769 L 474.78,647.603 L 474.78,670.859 L 482.803,674.527 L 482.803,651.271 L 486.813,653.104 Z M 450.015,627.191 L 441.992,633.492 L 446.004,635.325 L 446.004,658.581 L 454.025,662.248 L 454.025,638.992 L 458.037,640.825 Z M 505.616,638.193 L 422.051,598.788 L 422.051,672.456 L 505.616,711.861 Z M 516.093,621.384 L 436.792,585.332 L 465.111,572.804 L 544.412,608.857 Z M 562.433,598.273 L 483.133,562.22 L 511.451,549.693 L 590.752,585.745 Z M 511.881,539.023 L 611.881,585.425 L 611.881,678.231 L 511.881,724.633 L 411.881,678.231 L 411.881,585.425 Z "/>
	</g>
</svg>